<svg width="20" height="20" viewBox="0 0 20 20" fill="none" xmlns="http://www.w3.org/2000/svg">
<g id="More Circle">
<path id="More Circle_2" fill-rule="evenodd" clip-rule="evenodd" d="M9.15527e-05 9.99988C9.15527e-05 4.47988 4.47009 -0.00012207 10.0001 -0.00012207C15.5201 -0.00012207 20.0001 4.47988 20.0001 9.99988C20.0001 15.5199 15.5201 19.9999 10.0001 19.9999C4.47009 19.9999 9.15527e-05 15.5199 9.15527e-05 9.99988ZM5.52009 11.1999C4.86009 11.1999 4.32009 10.6599 4.32009 9.99988C4.32009 9.33988 4.86009 8.80088 5.52009 8.80088C6.18009 8.80088 6.71009 9.33988 6.71009 9.99988C6.71009 10.6599 6.18009 11.1999 5.52009 11.1999ZM8.80009 9.99988C8.80009 10.6599 9.34009 11.1999 10.0001 11.1999C10.6601 11.1999 11.1901 10.6599 11.1901 9.99988C11.1901 9.33988 10.6601 8.80088 10.0001 8.80088C9.34009 8.80088 8.80009 9.33988 8.80009 9.99988ZM13.2801 9.99988C13.2801 10.6599 13.8101 11.1999 14.4801 11.1999C15.1401 11.1999 15.6701 10.6599 15.6701 9.99988C15.6701 9.33988 15.1401 8.80088 14.4801 8.80088C13.8101 8.80088 13.2801 9.33988 13.2801 9.99988Z" fill="#FE799A"/>
</g>
</svg>
